<?xml version="1.0" encoding="UTF-8"?>
<svg version="1.1" xmlns="http://www.w3.org/2000/svg" width="640" height="640">
<path d="M0 0 C211.2 0 422.4 0 640 0 C640 211.2 640 422.4 640 640 C428.8 640 217.6 640 0 640 C0 428.8 0 217.6 0 0 Z " fill="#EFDA4F" transform="translate(0,0)"/>
<path d="M0 0 C0.71895447 0.00304138 1.43790894 0.00608276 2.1786499 0.00921631 C13.11599403 0.07749695 23.16190267 0.78477381 33.5625 4.4375 C34.19704102 4.64648926 34.83158203 4.85547852 35.48535156 5.07080078 C54.02969484 11.23838879 69.2916295 23.76819102 79.9375 40.0625 C80.32518555 40.65442139 80.71287109 41.24634277 81.11230469 41.85620117 C82.1484375 43.5390625 82.1484375 43.5390625 83.5625 46.4375 C82.16385927 50.63342218 79.19108552 51.78208539 75.5625 53.9375 C74.09943324 54.82806958 72.63722177 55.72004548 71.17578125 56.61328125 C70.03616943 57.30671631 70.03616943 57.30671631 68.87353516 58.01416016 C65.12547926 60.32254447 61.43849456 62.72300574 57.75 65.125 C56.33600604 66.04177238 54.92194521 66.95844165 53.5078125 67.875 C51.59715223 69.11494563 49.68727785 70.35600126 47.78027344 71.6015625 C46.23099744 72.61318605 44.6781366 73.61931364 43.125 74.625 C41.85849609 75.45064453 41.85849609 75.45064453 40.56640625 76.29296875 C38.5625 77.4375 38.5625 77.4375 36.5625 77.4375 C35.48182224 75.80899945 34.47389128 74.13202478 33.5 72.4375 C27.14122328 62.27912569 19.37657078 56.16769527 7.5625 53.4375 C-1.50460083 52.27941002 -11.61567572 52.16436004 -19.4375 57.4375 C-24.4312794 62.00110364 -28.37296339 66.58250181 -28.80859375 73.484375 C-29.3593519 84.40759756 -29.3593519 84.40759756 -24.83984375 93.984375 C-24.37707031 94.46390625 -23.91429687 94.9434375 -23.4375 95.4375 C-22.73625 96.283125 -22.035 97.12875 -21.3125 98 C-11.37278437 106.42715021 0.86768412 112.19527727 13.125 116.4375 C19.24075131 118.56628659 24.91332737 121.50120786 30.65625 124.46240234 C33.32117972 125.82558489 36.0046982 127.15022083 38.68774414 128.47729492 C41.98785457 130.11387153 45.27543075 131.77493171 48.5625 133.4375 C49.56410156 133.94023437 50.56570313 134.44296875 51.59765625 134.9609375 C72.30586628 145.74708431 89.45449956 162.13281699 97.59375 184.23828125 C98.33815939 186.63155745 98.98863019 188.99762769 99.5625 191.4375 C99.72733887 192.04674316 99.89217773 192.65598633 100.06201172 193.28369141 C105.53779319 214.94574514 101.78231746 239.40354957 90.46875 258.58203125 C78.17649976 276.99521757 60.46550834 288.08879 39.5625 294.4375 C38.8710791 294.64922852 38.1796582 294.86095703 37.46728516 295.07910156 C25.74132491 298.46308552 13.98944927 298.826476 1.875 298.875 C0.77918106 298.88439606 0.77918106 298.88439606 -0.33877563 298.89398193 C-32.36357576 299.06749474 -63.23099139 288.81895808 -86.55078125 266.35546875 C-94.51696352 258.43192914 -101.61127408 249.64928266 -106.4375 239.4375 C-106.4375 238.4475 -106.4375 237.4575 -106.4375 236.4375 C-105.75461914 236.04594727 -105.07173828 235.65439453 -104.36816406 235.25097656 C-101.73309345 233.73879031 -99.0988397 232.22519512 -96.46536255 230.7102356 C-95.28263271 230.02985684 -94.09975162 229.34974094 -92.91671753 228.66989136 C-84.02850228 223.55911045 -75.2058826 218.35417972 -66.49511719 212.94433594 C-65.73489258 212.47930664 -64.97466797 212.01427734 -64.19140625 211.53515625 C-63.53470947 211.12789307 -62.8780127 210.72062988 -62.20141602 210.30102539 C-60.4375 209.4375 -60.4375 209.4375 -57.4375 209.4375 C-55.9296875 211.2734375 -55.9296875 211.2734375 -54.3125 213.8125 C-44.61481207 228.25673561 -32.97920225 239.094316 -15.75 243.3125 C-0.92266083 246.06194038 15.51414537 245.82885978 28.69921875 237.75390625 C34.30158609 233.79583959 39.26507107 228.32856119 40.5625 221.4375 C41.37585719 212.86239132 40.99000209 205.42540894 35.5625 198.4375 C30.39844027 193.22675864 24.8243519 189.55642758 18.3125 186.25 C17.42280518 185.79004639 16.53311035 185.33009277 15.61645508 184.85620117 C6.79648869 180.38867193 -2.28224593 176.55261756 -11.39013672 172.71704102 C-20.27902413 168.96832393 -28.93440442 164.99101792 -37.4375 160.4375 C-38.04190918 160.11861816 -38.64631836 159.79973633 -39.26904297 159.47119141 C-47.74726952 154.97167386 -55.28457577 149.8614638 -62.4375 143.4375 C-63.49710937 142.50164062 -63.49710937 142.50164062 -64.578125 141.546875 C-81.0126994 126.14754938 -88.59016538 105.46405015 -89.78515625 83.3203125 C-90.06310505 74.01547006 -89.22755117 65.37045354 -86.4375 56.4375 C-86.00244141 55.02597656 -86.00244141 55.02597656 -85.55859375 53.5859375 C-81.3040901 40.94703544 -74.73527812 31.74865622 -65.4375 22.4375 C-64.77878906 21.7671875 -64.12007813 21.096875 -63.44140625 20.40625 C-46.31687906 4.20239631 -22.74130088 -0.20579465 0 0 Z " fill="#333430" transform="translate(487.4375,290.5625)"/>
<path d="M0 0 C19.8 0 39.6 0 60 0 C60.09047994 28.22591381 60.16408641 56.45170923 60.20724869 84.67773151 C60.2278271 97.78512598 60.25585706 110.89242359 60.30175781 123.99975586 C60.3417705 135.43120508 60.36746707 146.86258411 60.37635398 158.29410142 C60.38154435 164.34056335 60.3936443 170.38682456 60.42292023 176.43322182 C60.45031781 182.1385677 60.45839635 187.84363251 60.45243073 193.54903793 C60.45352017 195.62933448 60.46132752 197.70964163 60.4768219 199.78988075 C60.67226615 227.41334125 54.57915039 253.36754089 35 274 C16.91659482 289.906699 -6.24500566 295.63830499 -29.75 295.4375 C-30.4950177 295.43479095 -31.2400354 295.43208191 -32.00762939 295.42929077 C-43.41090417 295.3664506 -54.12436037 294.63717761 -65 291 C-66.05832031 290.649375 -67.11664063 290.29875 -68.20703125 289.9375 C-91.02970674 281.32291214 -109.2754405 263.89597565 -120 242 C-118.61725762 237.85177285 -115.82445157 236.89660902 -112.1875 234.875 C-106.320894 231.53700228 -100.52049408 228.11416065 -94.78125 224.5625 C-93.5167006 223.78268621 -92.25213347 223.00290118 -90.98754883 222.22314453 C-89.08905734 221.05192465 -87.19245205 219.87809534 -85.3008728 218.69573975 C-83.5114094 217.57817615 -81.71546178 216.47177514 -79.91796875 215.3671875 C-78.87406982 214.71862793 -77.8301709 214.07006836 -76.75463867 213.40185547 C-74 212 -74 212 -70 212 C-68.38769153 214.13055048 -67.07653206 216.13913456 -65.75 218.4375 C-58.97295526 229.48699914 -52.6083321 236.79722263 -40 241 C-28.53535139 241.66313874 -19.46717755 241.31554629 -10 234 C-6.6621939 230.35468009 -5.15747202 227.17509532 -3.8125 222.4375 C-3.48894531 221.32246094 -3.16539062 220.20742188 -2.83203125 219.05859375 C-2.42017578 217.54458984 -2.42017578 217.54458984 -2 216 C-1.82069933 215.3553549 -1.64139865 214.71070981 -1.45666462 214.04653001 C-0.68034649 210.56748156 -0.84604998 207.01949364 -0.84178162 203.47064209 C-0.83684364 202.60151129 -0.83190566 201.73238049 -0.82681805 200.83691239 C-0.81143887 197.91959718 -0.80308126 195.00230398 -0.79467773 192.08496094 C-0.78509954 189.99572556 -0.7750895 187.90649213 -0.76467896 185.81726074 C-0.73761745 180.14000512 -0.7166146 174.46274117 -0.69667697 168.78545666 C-0.67482512 162.85437181 -0.64743251 156.92331266 -0.62062073 150.99224854 C-0.57068301 139.75845097 -0.52574817 128.52463915 -0.48259836 117.29081368 C-0.43323522 104.50255548 -0.37831366 91.71432305 -0.32291877 78.92608976 C-0.20908215 52.61741603 -0.10298056 26.30871862 0 0 Z " fill="#333430" transform="translate(288,294)"/>
</svg>
